<svg width="1010" height="400" viewBox="0 0 1010 676" fill="none" xmlns="http://www.w3.org/2000/svg">
<path opacity="0.1" d="M586.537 111.402C521.817 109.152 460.177 88.262 401.307 65.402C342.437 42.542 284.147 17.222 220.977 5.10197C180.347 -2.68803 133.887 -3.78803 101.147 17.992C69.6466 38.992 59.4666 75.142 53.9866 108.722C49.8766 133.982 47.4566 160.572 58.7366 184.222C66.5666 200.642 80.4766 214.442 90.0966 230.162C123.557 284.882 99.9066 352.402 63.6566 405.792C46.6566 430.862 26.9166 454.792 13.7866 481.452C0.656636 508.112 -5.41336 538.702 6.06664 565.922C17.4566 592.922 44.5866 613.162 73.9766 627.412C133.657 656.412 203.977 664.642 272.587 669.332C424.407 679.722 577.047 675.222 729.267 670.722C785.607 669.052 842.187 667.362 897.617 658.652C928.387 653.822 960.167 646.142 982.507 627.652C1010.87 604.122 1017.9 564.282 998.897 534.772C967.017 485.282 878.897 472.992 856.587 419.882C844.317 390.642 856.917 358.082 874.737 330.962C912.977 272.802 977.067 221.772 980.447 155.292C982.767 109.632 951.957 63.902 904.317 42.292C854.377 19.652 785.137 22.502 748.317 59.982C710.337 98.532 643.657 113.402 586.537 111.402Z" fill="#FF8163"/>
</svg>
