<svg width="180" height="480" viewBox="0 0 180 480" fill="none" xmlns="http://www.w3.org/2000/svg">
<g clip-path="url(#clip0)">
<path d="M80.6687 434.744C80.6687 434.744 70.5887 432.625 64.5407 441.991C64.5407 441.991 68.9759 446.583 78.5183 440.225L80.6687 434.744Z" fill="#FF8163"/>
<path d="M81.7536 434.573C81.7536 434.573 88.1809 444.994 85.0272 456.555C85.0272 456.555 79.7856 453.793 79.2144 439.752L81.7536 434.573Z" fill="#FF8163"/>
<path d="M87.5135 417.436C87.5135 417.436 83.4815 407.723 67.3536 421.322C67.3536 421.322 69.504 427.856 76.6272 427.326C83.7504 426.796 85.6416 422.589 87.5135 417.436Z" fill="#FF8163"/>
<path d="M88.5647 416.736C88.5647 416.736 96.9311 415.474 97.7423 440.647C97.7423 440.647 92.4383 442.092 88.6703 434.132C84.9023 426.172 86.4575 421.706 88.5647 416.736Z" fill="#FF8163"/>
<path d="M93.4368 396.665C93.4368 396.665 88.7328 379.534 71.664 391.72C71.664 391.72 75.5616 407.438 91.6896 402.493L93.4368 396.665Z" fill="#FF8163"/>
<path d="M98.6831 371.057C98.6831 371.057 89.8079 353.743 74.0831 369.796C74.0831 369.796 79.5935 386.044 97.3391 377.213L98.6831 371.057Z" fill="#FF8163"/>
<path d="M100.565 346.679C100.565 346.679 90.2111 330.784 74.6207 346.679C74.6207 346.679 84.4319 360.631 100.565 350.741V346.679Z" fill="#FF8163"/>
<path d="M102.177 323.013C102.177 323.013 91.6895 306.412 76.7711 322.13C76.7711 322.13 88.5983 336.789 102.177 326.898V323.013Z" fill="#FF8163"/>
<path d="M101.237 301.996C101.237 301.996 90.1968 280.62 76.2336 295.109C76.2336 295.109 88.0608 313.476 101.237 306.058V301.996Z" fill="#FF8163"/>
<path d="M98.6831 277.441C98.6831 277.441 86.9855 256.248 73.4111 272.496C73.4111 272.496 87.2543 290.87 98.6831 281.327V277.441Z" fill="#FF8163"/>
<path d="M94.7807 255.498C94.7807 255.498 80.9375 235.585 68.8607 243.513C68.8607 243.513 83.2895 264.662 95.3855 260.777L94.7807 255.498Z" fill="#FF8163"/>
<path d="M89.9423 234.702C89.9423 234.702 73.9487 210.33 64.6751 218.454C64.6751 218.454 76.4447 237.376 91.0751 239.269L89.9423 234.702Z" fill="#FF8163"/>
<path d="M82.9583 210.576C82.9583 210.576 68.9759 190.657 58.7615 195.602C58.7615 195.602 70.7231 216.265 84.8351 216.795L82.9583 210.576Z" fill="#FF8163"/>
<path d="M76.6368 188.007C76.6368 188.007 61.1809 168.927 54.4609 172.283C54.4609 172.283 65.616 193.482 77.3088 192.246L76.6368 188.007Z" fill="#FF8163"/>
<path d="M70.4543 167.136C70.4543 167.136 57.1487 144.353 49.8911 146.119C49.8911 146.119 57.9551 166.43 70.4543 169.457V167.136Z" fill="#FF8163"/>
<path d="M63.744 139.068C63.744 139.068 51.984 121.596 45.6336 121.64C45.6336 121.64 54.9168 144.978 64.2288 144.763L63.744 139.068Z" fill="#FF8163"/>
<path d="M59.7697 120.36L48.4129 83.9718C48.4129 83.9718 47.8416 116.865 61.2145 127.109L59.7697 120.36Z" fill="#FF8163"/>
<path d="M55.1568 80.2314C55.1568 80.2314 53.2752 49.8545 54.4848 47.382C54.4848 47.382 46.3632 72.6119 55.2384 93.6537L55.1568 80.2314Z" fill="#FF8163"/>
<path d="M93.8784 396.256C93.8784 396.256 105.658 386.662 113.285 410.132C113.285 410.132 102.802 419.272 92.496 402.242L93.8784 396.256Z" fill="#FF8163"/>
<path d="M99.0336 370.08C99.0336 370.08 113.482 361.419 120.494 385.924C120.494 385.924 109.33 396.016 97.7184 376.274L99.0336 370.08Z" fill="#FF8163"/>
<path d="M101.237 348.161C101.237 348.161 111.586 332.266 127.157 348.161C127.157 348.161 117.346 362.113 101.237 352.223V348.161Z" fill="#FF8163"/>
<path d="M102.528 323.013C102.528 323.013 113.011 306.412 127.934 322.13C127.934 322.13 116.102 336.789 102.528 326.898V323.013Z" fill="#FF8163"/>
<path d="M101.237 302.602C101.237 302.602 108.59 278.634 124.574 288.959C124.574 288.959 115.934 310.184 101.885 306.569L101.237 302.602Z" fill="#FF8163"/>
<path d="M97.7569 277.322C97.7569 277.322 105.062 252.969 121.277 264.265C121.277 264.265 111.35 286.587 98.4769 281.087L97.7569 277.322Z" fill="#FF8163"/>
<path d="M93.2257 255.624C93.2257 255.624 96.1057 228.924 109.546 226.534C109.546 226.534 106.699 254.69 95.0401 260.436L93.2257 255.624Z" fill="#FF8163"/>
<path d="M89.6016 234.746C89.6016 234.746 90.7248 202.578 101.837 201.461C101.837 201.461 101.462 225.878 90.8544 239.306L89.6016 234.746Z" fill="#FF8163"/>
<path d="M81.8064 209.655C81.8064 209.655 85.1232 182.905 95.7264 179.631C95.7264 179.631 94.4113 205.542 82.8528 216.215L81.8064 209.655Z" fill="#FF8163"/>
<path d="M75.3792 188.197C75.3792 188.197 75.4944 160.337 81.9696 156.237C81.9696 156.237 85.992 181.467 77.256 191.754L75.3792 188.197Z" fill="#FF8163"/>
<path d="M69.96 166.852C69.96 166.852 70.8672 138.159 77.5776 134.116C77.5776 134.116 79.8768 156.823 70.968 168.732L69.96 166.852Z" fill="#FF8163"/>
<path d="M62.808 141.351C62.808 141.351 62.8512 118.013 67.6368 112.545C67.6368 112.545 72.4032 138.109 65.3088 146.05L62.808 141.351Z" fill="#FF8163"/>
<path d="M60.3361 119.199L64.9921 80.3511C64.9921 80.3511 71.3233 112.179 60.1105 126.2L60.3361 119.199Z" fill="#FF8163"/>
<path d="M59.4239 80.6033C59.4239 80.6033 71.3855 54.4903 71.1407 51.5889C71.1407 51.5889 69.8687 78.9571 54.8207 92.5876L59.4239 80.6033Z" fill="#FF8163"/>
<path d="M64.2911 144.984L65.0591 144.669C55.5311 103.847 53.1551 77.8093 58.3679 71.2873L57.8111 70.5178C52.2863 77.4056 54.5279 103.153 64.2911 144.984Z" fill="#444053"/>
<path d="M90.5231 240.549L91.6655 240.019C90.6575 236.279 89.5631 232.481 88.4207 228.741C78.4751 196.15 70.0127 165.874 64.5839 142.606L63.5903 141.975C69.0287 165.244 77.3423 196.718 87.2975 229.334C88.4351 233.055 89.5199 236.827 90.5231 240.549Z" fill="#444053"/>
<path d="M67.3093 467.322C67.4629 467.095 82.9093 444.249 93.6709 405.231C99.9819 382.394 103.498 358.386 104.087 334.102C104.821 303.744 99.9781 269.841 91.6693 239.054L90.7669 240.442C109.41 309.546 102.004 368.767 92.1781 404.424C81.5269 443.082 66.2581 465.682 66.1093 465.909L67.3093 467.322Z" fill="#444053"/>
</g>
<defs>
<clipPath id="clip0">
<rect width="101.28" height="431.432" fill="white" transform="matrix(-1 0 0 1 132.96 32.7991)"/>
</clipPath>
</defs>
</svg>
