<svg width="180" height="480" viewBox="0 0 180 480" fill="none" xmlns="http://www.w3.org/2000/svg">
<g clip-path="url(#clip0)">
<path d="M99.3313 434.744C99.3313 434.744 109.411 432.625 115.459 441.991C115.459 441.991 111.024 446.583 101.482 440.225L99.3313 434.744Z" fill="#FF8163"/>
<path d="M98.2464 434.573C98.2464 434.573 91.8191 444.994 94.9728 456.555C94.9728 456.555 100.214 453.793 100.786 439.752L98.2464 434.573Z" fill="#FF8163"/>
<path d="M92.4865 417.436C92.4865 417.436 96.5185 407.723 112.646 421.322C112.646 421.322 110.496 427.856 103.373 427.326C96.2496 426.796 94.3584 422.589 92.4865 417.436Z" fill="#FF8163"/>
<path d="M91.4353 416.736C91.4353 416.736 83.0689 415.474 82.2577 440.647C82.2577 440.647 87.5617 442.092 91.3297 434.132C95.0977 426.172 93.5425 421.706 91.4353 416.736Z" fill="#FF8163"/>
<path d="M86.5632 396.665C86.5632 396.665 91.2672 379.534 108.336 391.72C108.336 391.72 104.438 407.438 88.3104 402.493L86.5632 396.665Z" fill="#FF8163"/>
<path d="M81.3169 371.057C81.3169 371.057 90.1921 353.743 105.917 369.796C105.917 369.796 100.406 386.044 82.6609 377.213L81.3169 371.057Z" fill="#FF8163"/>
<path d="M79.4353 346.679C79.4353 346.679 89.7889 330.784 105.379 346.679C105.379 346.679 95.5681 360.631 79.4353 350.741V346.679Z" fill="#FF8163"/>
<path d="M77.8225 323.013C77.8225 323.013 88.3105 306.412 103.229 322.13C103.229 322.13 91.4017 336.789 77.8225 326.898V323.013Z" fill="#FF8163"/>
<path d="M78.7632 301.996C78.7632 301.996 89.8032 280.62 103.766 295.109C103.766 295.109 91.9392 313.476 78.7632 306.058V301.996Z" fill="#FF8163"/>
<path d="M81.3169 277.441C81.3169 277.441 93.0145 256.248 106.589 272.496C106.589 272.496 92.7457 290.87 81.3169 281.327V277.441Z" fill="#FF8163"/>
<path d="M85.2193 255.498C85.2193 255.498 99.0625 235.585 111.139 243.513C111.139 243.513 96.7105 264.662 84.6145 260.777L85.2193 255.498Z" fill="#FF8163"/>
<path d="M90.0577 234.702C90.0577 234.702 106.051 210.33 115.325 218.454C115.325 218.454 103.555 237.376 88.9249 239.269L90.0577 234.702Z" fill="#FF8163"/>
<path d="M97.0417 210.576C97.0417 210.576 111.024 190.657 121.238 195.602C121.238 195.602 109.277 216.265 95.1649 216.795L97.0417 210.576Z" fill="#FF8163"/>
<path d="M103.363 188.007C103.363 188.007 118.819 168.927 125.539 172.283C125.539 172.283 114.384 193.482 102.691 192.246L103.363 188.007Z" fill="#FF8163"/>
<path d="M109.546 167.136C109.546 167.136 122.851 144.353 130.109 146.119C130.109 146.119 122.045 166.43 109.546 169.457V167.136Z" fill="#FF8163"/>
<path d="M116.256 139.068C116.256 139.068 128.016 121.596 134.366 121.64C134.366 121.64 125.083 144.978 115.771 144.763L116.256 139.068Z" fill="#FF8163"/>
<path d="M120.23 120.36L131.587 83.9718C131.587 83.9718 132.158 116.865 118.786 127.109L120.23 120.36Z" fill="#FF8163"/>
<path d="M124.843 80.2314C124.843 80.2314 126.725 49.8545 125.515 47.382C125.515 47.382 133.637 72.6119 124.762 93.6537L124.843 80.2314Z" fill="#FF8163"/>
<path d="M86.1216 396.256C86.1216 396.256 74.3424 386.662 66.7152 410.132C66.7152 410.132 77.1984 419.272 87.504 402.242L86.1216 396.256Z" fill="#FF8163"/>
<path d="M80.9664 370.08C80.9664 370.08 66.5184 361.419 59.5056 385.924C59.5056 385.924 70.6704 396.016 82.2816 376.274L80.9664 370.08Z" fill="#FF8163"/>
<path d="M78.7631 348.161C78.7631 348.161 68.4143 332.266 52.8431 348.161C52.8431 348.161 62.6543 362.113 78.7631 352.223V348.161Z" fill="#FF8163"/>
<path d="M77.4719 323.013C77.4719 323.013 66.9887 306.412 52.0656 322.13C52.0656 322.13 63.8975 336.789 77.4719 326.898V323.013Z" fill="#FF8163"/>
<path d="M78.7632 302.602C78.7632 302.602 71.4097 278.634 55.4257 288.959C55.4257 288.959 64.0656 310.184 78.1152 306.569L78.7632 302.602Z" fill="#FF8163"/>
<path d="M82.2431 277.322C82.2431 277.322 74.9375 252.969 58.7231 264.265C58.7231 264.265 68.6495 286.587 81.5231 281.087L82.2431 277.322Z" fill="#FF8163"/>
<path d="M86.7743 255.624C86.7743 255.624 83.8943 228.924 70.4543 226.534C70.4543 226.534 73.3007 254.69 84.9599 260.436L86.7743 255.624Z" fill="#FF8163"/>
<path d="M90.3984 234.746C90.3984 234.746 89.2752 202.578 78.1632 201.461C78.1632 201.461 78.5376 225.878 89.1456 239.306L90.3984 234.746Z" fill="#FF8163"/>
<path d="M98.1936 209.655C98.1936 209.655 94.8768 182.905 84.2736 179.631C84.2736 179.631 85.5887 205.542 97.1472 216.215L98.1936 209.655Z" fill="#FF8163"/>
<path d="M104.621 188.197C104.621 188.197 104.506 160.337 98.0304 156.237C98.0304 156.237 94.008 181.467 102.744 191.754L104.621 188.197Z" fill="#FF8163"/>
<path d="M110.04 166.852C110.04 166.852 109.133 138.159 102.422 134.116C102.422 134.116 100.123 156.823 109.032 168.732L110.04 166.852Z" fill="#FF8163"/>
<path d="M117.192 141.351C117.192 141.351 117.149 118.013 112.363 112.545C112.363 112.545 107.597 138.109 114.691 146.05L117.192 141.351Z" fill="#FF8163"/>
<path d="M119.664 119.199L115.008 80.3511C115.008 80.3511 108.677 112.179 119.889 126.2L119.664 119.199Z" fill="#FF8163"/>
<path d="M120.576 80.6033C120.576 80.6033 108.614 54.4903 108.859 51.5889C108.859 51.5889 110.131 78.9571 125.179 92.5876L120.576 80.6033Z" fill="#FF8163"/>
<path d="M115.709 144.984L114.941 144.669C124.469 103.847 126.845 77.8093 121.632 71.2873L122.189 70.5178C127.714 77.4056 125.472 103.153 115.709 144.984Z" fill="#444053"/>
<path d="M89.4769 240.549L88.3345 240.019C89.3425 236.279 90.4369 232.481 91.5793 228.741C101.525 196.15 109.987 165.874 115.416 142.606L116.41 141.975C110.971 165.244 102.658 196.718 92.7025 229.334C91.5649 233.055 90.4801 236.827 89.4769 240.549Z" fill="#444053"/>
<path d="M112.691 467.322C112.537 467.095 97.0907 444.249 86.3291 405.231C80.0181 382.394 76.5025 358.386 75.9131 334.102C75.1787 303.744 80.0219 269.841 88.3307 239.054L89.2331 240.442C70.5899 309.546 77.9963 368.767 87.8219 404.424C98.4731 443.082 113.742 465.682 113.891 465.909L112.691 467.322Z" fill="#444053"/>
</g>
<defs>
<clipPath id="clip0">
<rect width="101.28" height="431.432" fill="white" transform="translate(47.04 32.7991)"/>
</clipPath>
</defs>
</svg>
